<?xml version="1.0" encoding="UTF-8" standalone="no"?>
<!DOCTYPE svg PUBLIC "-//W3C//DTD SVG 1.1//EN" "http://www.w3.org/Graphics/SVG/1.1/DTD/svg11.dtd">
<svg width="100%" height="100%" viewBox="0 0 2048 2048" version="1.1" xmlns="http://www.w3.org/2000/svg" xmlns:xlink="http://www.w3.org/1999/xlink" xml:space="preserve" xmlns:serif="http://www.serif.com/" style="fill-rule:evenodd;clip-rule:evenodd;stroke-linejoin:round;stroke-miterlimit:2;">
    <path d="M768,1365C764.667,1391 756,1418.333 742,1447L1306,1447C1294,1423 1285.333,1395.667 1280,1365L768,1365ZM1263,1292L1309,1219C1214.333,1186.333 1119.333,1170.667 1024,1172C928,1170.667 833,1186.333 739,1219L785,1292C863.667,1265.333 943.333,1252.667 1024,1254C1104,1252.667 1183.667,1265.333 1263,1292ZM831,1519L624,1519C668.667,1441.667 692.667,1365.333 696,1290C620,1210.667 566,1136.333 534,1067C502,997.667 500,923 528,843C550,779 589.333,716 646,654C702.667,592 806.667,509.667 958,407C946.667,399.667 931.333,387.667 912,371C892.667,354.333 883,328 883,292C883,253.333 896.667,221.333 924,196C951.333,170.667 984.667,158 1024,158C1062.667,158 1096,170.667 1124,196C1152,221.333 1165.667,253.333 1165,292C1165,328 1155.333,354.333 1136,371C1116.667,387.667 1101.333,399.667 1090,407C1240.667,509 1344.333,591.333 1401,654C1457.667,716.667 1497.333,779.667 1520,843C1548,922.333 1546,997 1514,1067C1482,1137 1428,1211.333 1352,1290C1354.667,1365.333 1378.667,1441.667 1424,1519L1217,1519L1227,1535C1249,1570.333 1272.333,1590.333 1297,1595C1321.667,1599.667 1351.333,1602 1386,1602L1636,1602C1686.667,1602 1734,1622.667 1778,1664C1822,1705.333 1843.667,1765 1843,1843L1348,1843C1266,1843 1191.667,1815 1125,1759C1058.333,1703 1024.667,1636.667 1024,1560C1024,1636 990.333,1702.333 923,1759C855.667,1815.667 781.333,1843.667 700,1843L205,1843C205,1765 226.667,1705.333 270,1664C313.333,1622.667 360.667,1602 412,1602L662,1602C696,1602 725.333,1599.667 750,1595C774.667,1590.333 798.333,1570.333 821,1535L831,1519ZM977,818L882,818L882,907L977,907L977,1072L1071,1072L1071,907L1166,907L1166,818L1071,818L1071,714L977,714L977,818Z" style="fill:rgb(16,16,16);fill-opacity:0.94;fill-rule:nonzero;"/>
</svg>
