<?xml version="1.0" encoding="UTF-8" standalone="no"?>
<!DOCTYPE svg PUBLIC "-//W3C//DTD SVG 1.1//EN" "http://www.w3.org/Graphics/SVG/1.1/DTD/svg11.dtd">
<svg width="100%" height="100%" viewBox="0 0 2048 2048" version="1.1" xmlns="http://www.w3.org/2000/svg" xmlns:xlink="http://www.w3.org/1999/xlink" xml:space="preserve" xmlns:serif="http://www.serif.com/" style="fill-rule:evenodd;clip-rule:evenodd;stroke-linejoin:round;stroke-miterlimit:2;">
    <g transform="matrix(1,0,0,1,1.152231,1.764231)">
        <g transform="matrix(1,0,0,1,1022.847769,1022.235769)">
            <g transform="matrix(1,0,0,1,-1024,-1024)">
                <path d="M535,1769L1513,1769L1501,1696L547,1696L535,1769ZM1024,848C1007.333,808 986.667,771 962,737C982.667,705 1003.333,683.333 1024,672C1044,683.333 1064.667,705 1086,737C1060.667,771 1040,808 1024,848ZM927,1302C824.333,1309.333 723.333,1328.667 624,1360C542,1288 475.333,1217 424,1147C372.667,1077 347,1009.667 347,945C347,885.667 371.667,832.667 421,786C470.333,739.333 519.667,716 569,716C613.667,716 658.667,737 704,779C749.333,821 783.333,864.333 806,909C826,945 851,1003.333 881,1084C911,1164.667 926.333,1237.333 927,1302ZM577,1519L551,1675L696,1591L577,1519ZM1024,612C992.667,612 947.333,652.333 888,733C867.333,709 850.667,690.667 838,678C900,584.667 962,538 1024,538C1085.333,538 1147.333,584.667 1210,678C1196.667,690.667 1180,709 1160,733C1100,652.333 1054.667,612 1024,612ZM1024,1387C1023.333,1303 1009.333,1214 982,1120C954.667,1026 926.667,950.333 898,893L884,866L872,843C853.333,814.333 837.333,791.333 824,774C790,732 750,697 704,669C658,641 613.333,627 570,627C501.333,627 432,658 362,720C292,782 257,858.333 257,949C257,1029 290,1114 356,1204C422,1294 505,1380.333 605,1463C739,1413.667 878.667,1388.333 1024,1387ZM1600,1843L448,1843L509,1478C292.333,1291.333 183.667,1113 183,943C182.333,837 224,745.667 308,669C392,592.333 481,553.667 575,553C627,553 680,568.667 734,600C788,631.333 835.333,671 876,719C916.667,768.333 949.667,823.333 975,884C1000.333,944.667 1016.667,994.667 1024,1034C1032,994 1048.333,944 1073,884C1097.667,824 1130.667,769 1172,719C1212.667,671 1260,631.333 1314,600C1368,568.667 1421,553 1473,553C1566.333,553 1655,591.667 1739,669C1823,746.333 1865,837.667 1865,943C1863.667,1113 1755,1291.333 1539,1478L1600,1843ZM1121,1302C1121,1237.333 1136,1164.667 1166,1084C1196,1003.333 1221.333,945 1242,909C1264.667,863.667 1298.667,820.333 1344,779C1389.333,737.667 1434.333,716.667 1479,716C1528.333,716 1577.667,739.333 1627,786C1676.333,832.667 1701,885.667 1701,945C1701,1009 1675.333,1076.333 1624,1147C1572.667,1217.667 1506,1288.667 1424,1360C1324,1328.667 1223,1309.333 1121,1302ZM1471,1519L1352,1591L1497,1675L1471,1519ZM1024,1387C1168.667,1388.333 1308.333,1413.667 1443,1463C1543,1379.667 1626,1293.333 1692,1204C1758,1114.667 1791,1029.667 1791,949C1791,858.333 1756,782 1686,720C1616,658 1546.667,627 1478,627C1434,627 1389,641 1343,669C1297,697 1257.333,732 1224,774C1210,791.333 1194,814.333 1176,843L1164,866L1150,893C1120.667,949.667 1092.333,1025.333 1065,1120C1037.667,1214.667 1024,1303.667 1024,1387ZM885,1546L1024,1632L1163,1548L1024,1462L885,1546ZM977,298L977,203L1071,203L1071,298L1178,298L1178,393L1071,393L1071,546C1039,535.333 1007.667,535.333 977,546L977,393L870,393L870,298L977,298Z" style="fill:rgb(16,16,16);fill-opacity:0.95;fill-rule:nonzero;stroke:black;stroke-width:20px;"/>
            </g>
        </g>
        <g transform="matrix(0.302198,0,0,0.302198,844.134015,13.450586)">
            <g transform="matrix(352,0,0,352,705.734375,1212.296875)">
            </g>
            <text x="445px" y="1212.297px" style="font-family:'Futura-Medium', 'Futura', sans-serif;font-weight:500;font-size:352px;fill:white;">A</text>
        </g>
    </g>
</svg>
