<?xml version="1.0" encoding="UTF-8" standalone="no"?>
<!DOCTYPE svg PUBLIC "-//W3C//DTD SVG 1.1//EN" "http://www.w3.org/Graphics/SVG/1.1/DTD/svg11.dtd">
<svg width="100%" height="100%" viewBox="0 0 2048 2048" version="1.1" xmlns="http://www.w3.org/2000/svg" xmlns:xlink="http://www.w3.org/1999/xlink" xml:space="preserve" xmlns:serif="http://www.serif.com/" style="fill-rule:evenodd;clip-rule:evenodd;stroke-linejoin:round;stroke-miterlimit:2;">
    <g transform="matrix(1,0,0,1,1.152231,1.764231)">
        <g transform="matrix(1,0,0,1,1022.847769,1022.235769)">
            <g transform="matrix(1,0,0,1,-1024,-1024)">
                <path d="M502,868L450,869L424,933L493,954L539,899L502,868ZM1038,681C1060.667,681.667 1055.333,659 1022,613C988.667,567 962,553 942,571L826,680L1038,681ZM700,583C704,557 742.667,521.333 816,476C889.333,430.667 962.667,382.667 1036,332L1151,178L1247,395C1475,509.667 1619.333,649 1680,813C1740.667,977 1756.333,1178 1727,1416C1715,1501.333 1716.667,1580 1732,1652C1747.333,1724 1766.333,1787.333 1789,1842L547,1843C541,1724.333 554,1624 586,1542C618,1460 679,1380.667 769,1304C802.333,1296.667 830,1283.667 852,1265C874,1246.333 891.667,1226.667 905,1206L968,1205L1106,1176L1245,1079L1311,872C1311,860.667 1308.333,849.333 1303,838C1297.667,826.667 1293.667,814.333 1291,801C1249.667,953 1196,1049.333 1130,1090C1064,1130.667 1000.333,1150 939,1148C781.667,1120 684.333,1140 647,1208L591,1310L374,1189L489,1107L438,1057L316,1143L304,846L700,583ZM1681,1775C1613,1688.333 1584.667,1585.667 1596,1467C1607.333,1348.333 1616.333,1227.333 1623,1104C1629.667,980.667 1613,863.667 1573,753C1533,642.333 1427.667,550.333 1257,477C1403.667,586.333 1488,700.333 1510,819C1532,937.667 1537.333,1054.667 1526,1170C1514.667,1285.333 1510.667,1395 1514,1499C1517.333,1603 1573,1695 1681,1775Z" style="fill:rgb(16,16,16);fill-opacity:0.95;fill-rule:nonzero;stroke:black;stroke-width:20px;"/>
            </g>
        </g>
    </g>
</svg>
