<?xml version="1.0" encoding="UTF-8" standalone="no"?>
<!DOCTYPE svg PUBLIC "-//W3C//DTD SVG 1.1//EN" "http://www.w3.org/Graphics/SVG/1.1/DTD/svg11.dtd">
<svg width="100%" height="100%" viewBox="0 0 2048 2048" version="1.1" xmlns="http://www.w3.org/2000/svg" xmlns:xlink="http://www.w3.org/1999/xlink" xml:space="preserve" xmlns:serif="http://www.serif.com/" style="fill-rule:evenodd;clip-rule:evenodd;stroke-linejoin:round;stroke-miterlimit:2;">
    <g transform="matrix(1,0,0,1,1.152231,1.764231)">
        <g transform="matrix(1,0,0,1,1022.847769,1022.235769)">
            <g transform="matrix(1,0,0,1,-1024,-1024)">
                <path d="M590,1519C592.667,1567 587.667,1619.667 575,1677L709,1591L590,1519ZM1607,1843L441,1843C517,1689 536.167,1536.833 498.5,1386.5C460.833,1236.167 393.333,1086.333 296,937C288,938.333 281.667,939 277,939C241,939 210.167,926.167 184.5,900.5C158.833,874.833 146,844 146,808C146,772 158.833,741.167 184.5,715.5C210.167,689.833 241,677 277,677C313,677 343.833,689.833 369.5,715.5C395.167,741.167 408,772 408,808C408,821.333 406,834 402,846C399.333,855.333 394.333,866.333 387,879L583,1018L683,532C640.333,511.333 616.333,477 611,429C607.667,399.667 617.333,369.333 640,338C662.667,306.667 692,289 728,285C764,281.667 796,291.333 824,314C852,336.667 868,366 872,402C876.667,447.333 861.333,485.333 826,516L1024,928L1222,516C1186,485.333 1170.667,447.333 1176,402C1180,366 1196,336.667 1224,314C1252,291.333 1284,281.667 1320,285C1356,289 1385.167,306.667 1407.5,338C1429.833,369.333 1439.667,399.667 1437,429C1431,477 1407,511.333 1365,532L1465,1018L1661,879C1653,866.333 1648,855.333 1646,846C1642,834 1640,821.333 1640,808C1640,772 1652.833,741.167 1678.5,715.5C1704.167,689.833 1735,677 1771,677C1807,677 1837.833,689.833 1863.5,715.5C1889.167,741.167 1902,772 1902,808C1902,844 1889.167,874.833 1863.5,900.5C1837.833,926.167 1807,939 1771,939C1766.333,939 1760,938.333 1752,937C1654,1086.333 1586.333,1236.167 1549,1386.5C1511.667,1536.833 1531,1689 1607,1843ZM1024,1393C1096.667,1393 1170.667,1402.5 1246,1421.5C1321.333,1440.5 1392.333,1463 1459,1489C1460.333,1461.667 1464,1432 1470,1400C1398,1372 1324.167,1349.333 1248.5,1332C1172.833,1314.667 1098,1306 1024,1306C950,1306 875,1314.667 799,1332C723,1349.333 649.333,1372 578,1400C583.333,1432 587,1461.667 589,1489C655,1463 725.667,1440.5 801,1421.5C876.333,1402.5 950.667,1393 1024,1393ZM546,1769L1502,1769C1492,1746.333 1484,1722 1478,1696L570,1696C563.333,1722 555.333,1746.333 546,1769ZM1458,1519L1339,1591L1473,1677C1459.667,1619.667 1454.667,1567 1458,1519ZM885,1566L1024,1653L1163,1569L1024,1483L885,1566Z" style="fill:rgb(16,16,16);fill-opacity:0.95;fill-rule:nonzero;stroke:black;stroke-width:20px;"/>
            </g>
        </g>
    </g>
</svg>
