<?xml version="1.0" encoding="UTF-8" standalone="no"?>
<!DOCTYPE svg PUBLIC "-//W3C//DTD SVG 1.1//EN" "http://www.w3.org/Graphics/SVG/1.1/DTD/svg11.dtd">
<svg width="100%" height="100%" viewBox="0 0 2048 2048" version="1.1" xmlns="http://www.w3.org/2000/svg" xmlns:xlink="http://www.w3.org/1999/xlink" xml:space="preserve" xmlns:serif="http://www.serif.com/" style="fill-rule:evenodd;clip-rule:evenodd;stroke-linejoin:round;stroke-miterlimit:2;">
    <g transform="matrix(1,0,0,1,1.152231,1.764231)">
        <g transform="matrix(1,0,0,1,1022.847769,1022.235769)">
            <g transform="matrix(1,0,0,1,-1024,-1024)">
                <path d="M1665,1843L383,1843L412,1579L571,1461L621,802L472,695L455,354L744,354L744,501L881,501L881,354L1167,354L1167,501L1304,501L1304,354L1593,354L1576,695L1427,802L1477,1461L1636,1579L1665,1843ZM691,854L1357,854L1351,766L697,766L691,854ZM643,1501L1405,1501L1399,1414L649,1414L643,1501Z" style="fill:rgb(16,16,16);fill-opacity:0.95;fill-rule:nonzero;stroke:black;stroke-width:20px;"/>
            </g>
        </g>
    </g>
</svg>
