<?xml version="1.0" encoding="UTF-8" standalone="no"?>
<!DOCTYPE svg PUBLIC "-//W3C//DTD SVG 1.1//EN" "http://www.w3.org/Graphics/SVG/1.1/DTD/svg11.dtd">
<svg width="100%" height="100%" viewBox="0 0 2048 2048" version="1.1" xmlns="http://www.w3.org/2000/svg" xmlns:xlink="http://www.w3.org/1999/xlink" xml:space="preserve" xmlns:serif="http://www.serif.com/" style="fill-rule:evenodd;clip-rule:evenodd;stroke-linejoin:round;stroke-miterlimit:2;">
    <g transform="matrix(1,0,0,1,1.152231,1.764231)">
        <g transform="matrix(1,0,0,1,1022.847769,1022.235769)">
            <g transform="matrix(1,0,0,1,-1024,-1024)">
                <path d="M501.6,1811L550,1456.6L290,1187.4C290,1187.4 123.6,899.2 319.9,706.4C582.2,448.7 826,727.2 826,727.2L1021.6,561.5L1205.6,727.2C1205.6,727.2 1422,494.7 1636,651.2C1850,807.7 1891.4,968.8 1753.4,1182.8C1615.3,1396.8 1502.5,1463.5 1502.5,1463.5L1558,1811L501.6,1811Z" style="fill:rgb(249,249,249);fill-opacity:0.69;fill-rule:nonzero;"/>
                <path d="M977,298L977,203L1071,203L1071,298L1178,298L1178,393L1071,393L1071,546C1039,535.333 1007.667,535.333 977,546L977,393L870,393L870,298L977,298ZM1024,612C992.667,612 947.333,652.333 888,733C867.333,709 850.667,690.667 838,678C900,584.667 962,538 1024,538C1085.333,538 1147.333,584.667 1210,678C1196.667,690.667 1180,709 1160,733C1100,652.333 1054.667,612 1024,612ZM577,1519L551,1675L696,1591L577,1519ZM987,1313C986.333,1215 974.167,1123.5 950.5,1038.5C926.833,953.5 900,889 870,845C840,786.333 796.167,735.333 738.5,692C680.833,648.667 624.667,627 570,627C501.333,627 432,658 362,720C292,782 257,858.333 257,949C257,1021.667 285.833,1100.333 343.5,1185C401.167,1269.667 468.667,1344 546,1408C687.333,1349.333 834.333,1317.667 987,1313ZM1600,1843L448,1843L509,1478C292.333,1291.333 183.667,1113 183,943C182.333,837 224,745.5 308,668.5C392,591.5 481,553 575,553C627,553 679.833,568.667 733.5,600C787.167,631.333 834.667,671 876,719C916.667,768.333 949.5,823.167 974.5,883.5C999.5,943.833 1016,994 1024,1034C1032,994 1048.333,943.833 1073,883.5C1097.667,823.167 1130.667,768.333 1172,719C1212.667,671 1260,631.333 1314,600C1368,568.667 1421,553 1473,553C1566.333,553 1655,591.5 1739,668.5C1823,745.5 1865,837 1865,943C1863.667,1113 1755,1291.333 1539,1478L1600,1843ZM535,1769L1513,1769L1463,1471C1319,1415 1172.667,1387 1024,1387C875.333,1387 729,1415 585,1471L535,1769ZM1471,1519L1497,1675L1352,1591L1471,1519ZM1061,1313C1213.667,1317.667 1360.667,1349.333 1502,1408C1578.667,1344 1646,1269.667 1704,1185C1762,1100.333 1791,1021.667 1791,949C1791,858.333 1755.833,782 1685.5,720C1615.167,658 1546,627 1478,627C1422.667,627 1366.167,648.667 1308.5,692C1250.833,735.333 1207.333,786.333 1178,845C1147.333,889 1120.167,953.5 1096.5,1038.5C1072.833,1123.5 1061,1215 1061,1313ZM885,1546L1026,1462L1163,1548L1022,1632L885,1546Z" style="fill:rgb(16,16,16);fill-rule:nonzero;"/>
            </g>
        </g>
    </g>
</svg>
