<?xml version="1.0" encoding="UTF-8" standalone="no"?>
<!DOCTYPE svg PUBLIC "-//W3C//DTD SVG 1.1//EN" "http://www.w3.org/Graphics/SVG/1.1/DTD/svg11.dtd">
<svg width="100%" height="100%" viewBox="0 0 2048 2048" version="1.1" xmlns="http://www.w3.org/2000/svg" xmlns:xlink="http://www.w3.org/1999/xlink" xml:space="preserve" xmlns:serif="http://www.serif.com/" style="fill-rule:evenodd;clip-rule:evenodd;stroke-linejoin:round;stroke-miterlimit:2;">
    <g transform="matrix(1,0,0,1,1.152231,1.764231)">
        <g transform="matrix(1,0,0,1,1022.847769,1022.235769)">
            <g transform="matrix(1,0,0,1,-1024,-1024)">
                <path d="M352,861L1139,292L1233,440C1233,440 1569,543 1631,828C1694,1114 1682,1802 1682,1802L594,1811C594,1811 557,1521 778,1351C999,1180 999,1139 999,1139C999,1139 773,1068 704,1123C635,1178 587,1261 587,1261L458,1194L532,1109L444,1012L350,1068L352,861Z" style="fill:rgb(249,249,249);fill-opacity:0.69;fill-rule:nonzero;"/>
                <path d="M1151,178L1036,332C962,382 889,430 816,476C743,521 704,557 700,583L304,846L316,1143L438,1057L489,1107L374,1189L591,1310L647,1208C684,1140 782,1120 939,1148L884,1233C859,1270 821,1293 769,1304C689.069,1366.785 626.144,1448.622 586,1542C554,1624 541,1724 547,1843L1789,1843C1766,1788 1747,1725 1732,1653C1717,1580 1715,1501 1727,1416C1756,1177 1740,976 1680,813C1619,649 1475,510 1247,395L1151,178ZM1134,323L1193,456C1294.449,496.183 1384.446,560.761 1455,644C1510,716 1555,794 1589,878C1616,975 1629,1059 1630,1131C1630,1202 1627,1271 1621,1336C1614,1401 1610,1467 1608,1535C1606,1602 1617,1680 1640,1769L621,1769C617,1685 633,1611 669,1546C705,1481 754,1422 815,1369C893,1347 944,1313 967,1267C990,1221 1020,1177 1057,1136C1070,1126 1084,1121 1095,1121C1105,1120 1116,1121 1128,1119C1180,1112 1223,1083 1257,1034C1290,985 1308,930 1309,869L1290,802C1253,961 1191,1047 1102,1059L1057,1065C1041,1066 1024,1075 1005,1091C964,1066 918,1056 867,1060C793,1066 738,1075 702,1087L594,1160L555,1205L508,1177L586,1112L448,968L384,1009L380,884L746,643C761,609 804,569 877,523L1085,392L1134,323ZM960,564C954,564 948,566 942,571L826,671L1038,673C1061,673 1055,652 1022,610C998,579 978,564 960,564ZM502,868L469,872L436,928L493,954L539,899L502,868Z" style="fill:rgb(16,16,16);fill-rule:nonzero;"/>
            </g>
        </g>
    </g>
</svg>
