<?xml version="1.0" encoding="UTF-8" standalone="no"?>
<!DOCTYPE svg PUBLIC "-//W3C//DTD SVG 1.1//EN" "http://www.w3.org/Graphics/SVG/1.1/DTD/svg11.dtd">
<svg width="100%" height="100%" viewBox="0 0 2048 2048" version="1.1" xmlns="http://www.w3.org/2000/svg" xmlns:xlink="http://www.w3.org/1999/xlink" xml:space="preserve" xmlns:serif="http://www.serif.com/" style="fill-rule:evenodd;clip-rule:evenodd;stroke-linejoin:round;stroke-miterlimit:2;">
    <g transform="matrix(1,0,0,1,1.152231,1.764231)">
        <g transform="matrix(1,0,0,1,1022.847769,1022.235769)">
            <g transform="matrix(1,0,0,1,-1024,-1024)">
                <path d="M508.5,1815.6L556.9,1458.9L340.6,904.3L204.8,883.6L188.7,757.1L301.4,713.3L379.7,787L361.3,886L607.5,1083.8L720.3,515.5L635,428L713.3,320L826.1,363.7L803.1,524.7L1026.3,998.7L1270.3,508.7L1203.5,402.8L1295.5,310.8L1401.4,384.4L1337,534L1440.5,1063.2L1700.5,902.2L1684.5,759.5L1815.5,713.5L1873.1,844.6L1666.1,948.2L1491.1,1477.4L1539.5,1785.8L508.5,1815.6Z" style="fill:rgb(249,249,249);fill-opacity:0.69;fill-rule:nonzero;"/>
                <path d="M546,1769L1502,1769C1466.667,1682.333 1452.333,1589 1459,1489C1392.333,1463 1321.333,1440.5 1246,1421.5C1170.667,1402.5 1096.667,1393 1024,1393C950.667,1393 876.333,1402.5 801,1421.5C725.667,1440.5 655,1463 589,1489C595,1589 580.667,1682.333 546,1769ZM1024,1319C1098,1319 1172.5,1327.833 1247.5,1345.5C1322.5,1363.167 1396,1385.667 1468,1413C1479.333,1343 1499.5,1272.167 1528.5,1200.5C1557.5,1128.833 1592.667,1058 1634,988L1414,1143L1291,542L1024,1097L757,542L634,1143L414,988C454.667,1058 489.5,1128.833 518.5,1200.5C547.5,1272.167 568,1343 580,1413C652,1385.667 725.5,1363.167 800.5,1345.5C875.5,1327.833 950,1319 1024,1319ZM1607,1843L441,1843C517,1689 536.167,1536.833 498.5,1386.5C460.833,1236.167 393.333,1086.333 296,937C288,938.333 281.667,939 277,939C241,939 210.167,926.167 184.5,900.5C158.833,874.833 146,844 146,808C146,772 158.833,741.167 184.5,715.5C210.167,689.833 241,677 277,677C313,677 343.833,689.833 369.5,715.5C395.167,741.167 408,772 408,808C408,821.333 406,834 402,846C399.333,855.333 394.333,866.333 387,879L583,1018L683,532C640.333,511.333 616.333,477 611,429C607.667,399.667 617.333,369.333 640,338C662.667,306.667 692,289 728,285C764,281.667 796,291.333 824,314C852,336.667 868,366 872,402C876.667,447.333 861.333,485.333 826,516L1024,928L1222,516C1186,485.333 1170.667,447.333 1176,402C1180,366 1196,336.667 1224,314C1252,291.333 1284,281.667 1320,285C1356,289 1385.167,306.667 1407.5,338C1429.833,369.333 1439.667,399.667 1437,429C1431,477 1407,511.333 1365,532L1465,1018L1661,879C1653,866.333 1648,855.333 1646,846C1642,834 1640,821.333 1640,808C1640,772 1652.833,741.167 1678.5,715.5C1704.167,689.833 1735,677 1771,677C1807,677 1837.833,689.833 1863.5,715.5C1889.167,741.167 1902,772 1902,808C1902,844 1889.167,874.833 1863.5,900.5C1837.833,926.167 1807,939 1771,939C1766.333,939 1760,938.333 1752,937C1654,1086.333 1586.333,1236.167 1549,1386.5C1511.667,1536.833 1531,1689 1607,1843ZM276,746C234.667,746 214,766.667 214,808C214,849.333 234.667,870 276,870C318,870 339,849.333 339,808C339,766.667 318,746 276,746ZM742,352C700.667,352 680,372.667 680,414C680,455.333 700.667,476 742,476C783.333,476 804,455.333 804,414C804,372.667 783.333,352 742,352ZM590,1519L709,1591L575,1677C587.667,1619.667 592.667,1567 590,1519ZM1772,746C1730,746 1709,766.667 1709,808C1709,849.333 1730,870 1772,870C1813.333,870 1834,849.333 1834,808C1834,766.667 1813.333,746 1772,746ZM1306,352C1264.667,352 1244,372.667 1244,414C1244,455.333 1264.667,476 1306,476C1347.333,476 1368,455.333 1368,414C1368,372.667 1347.333,352 1306,352ZM1458,1519L1339,1591L1473,1677C1459.667,1619.667 1454.667,1567 1458,1519ZM885,1566L1024,1483L1163,1569L1024,1653L885,1566Z" style="fill:rgb(16,16,16);fill-rule:nonzero;"/>
            </g>
        </g>
    </g>
</svg>
